<?xml version="1.0" standalone="no"?>
<!DOCTYPE svg PUBLIC "-//W3C//DTD SVG 20010904//EN"
 "http://www.w3.org/TR/2001/REC-SVG-20010904/DTD/svg10.dtd">
<svg version="1.0" xmlns="http://www.w3.org/2000/svg"
 width="1280.000000pt" height="1280.000000pt" viewBox="0 0 1280.000000 1280.000000"
 preserveAspectRatio="xMidYMid meet">
<metadata>
Created by potrace 1.15, written by Peter Selinger 2001-2017
</metadata>
<g transform="translate(0.000000,1280.000000) scale(0.100000,-0.100000)"
fill="#edcb53" stroke="none">
<path d="M2479 12009 c-87 -13 -312 -66 -397 -95 -284 -94 -596 -324 -786
-578 -177 -236 -246 -384 -311 -666 -19 -80 -39 -189 -44 -242 -15 -133 -15
-7896 -1 -8022 24 -209 99 -472 179 -630 105 -206 294 -437 466 -571 230 -179
389 -258 654 -325 258 -65 -91 -60 4296 -60 4372 0 4031 -5 4290 59 230 57
372 121 569 259 234 164 428 390 556 647 92 185 158 422 180 647 7 69 10 1412
7 4058 -3 3717 -4 3960 -20 4040 -73 350 -141 521 -304 752 -104 149 -224 273
-364 377 -217 163 -371 237 -609 297 -279 69 80 64 -4320 63 -2192 -1 -4010
-5 -4041 -10z m7354 -1429 c260 -30 537 -213 677 -448 57 -97 107 -225 120
-307 7 -49 10 -1075 8 -3425 l-3 -3355 -29 -75 c-102 -269 -258 -450 -481
-560 -123 -60 -177 -78 -274 -91 -50 -6 -1237 -9 -3401 -7 l-3325 3 -104 37
c-304 109 -510 316 -618 623 l-28 80 0 3390 0 3390 23 70 c57 169 135 295 254
411 91 89 164 140 272 189 101 45 166 65 244 75 103 12 6560 12 6665 0z"/>
<path d="M6409 10051 c-237 -64 -453 -256 -643 -571 -59 -97 -159 -298 -191
-382 -10 -27 -21 -48 -25 -48 -4 0 -53 18 -107 39 -55 22 -112 43 -127 47 -15
3 -33 18 -40 33 -17 31 -61 73 -96 91 -39 21 -123 16 -165 -9 -36 -21 -37 -21
-158 -5 -222 29 -442 -1 -599 -82 -108 -56 -224 -175 -276 -285 -134 -281
-113 -649 64 -1122 55 -147 60 -167 45 -167 -25 0 -268 -116 -384 -184 -274
-160 -464 -340 -556 -528 -105 -213 -91 -461 35 -665 89 -144 210 -264 376
-376 42 -29 82 -62 89 -75 16 -29 63 -58 109 -67 28 -5 323 -129 339 -141 2
-2 -19 -63 -47 -137 -152 -398 -194 -754 -121 -1007 13 -46 21 -98 20 -135 -3
-104 56 -185 148 -201 20 -4 57 -22 83 -41 145 -105 374 -155 610 -133 201 19
368 60 620 151 76 28 141 49 142 48 2 -2 28 -61 59 -132 171 -392 413 -694
652 -812 452 -223 912 51 1240 740 35 72 69 147 76 168 16 45 6 46 176 -17
473 -177 841 -198 1122 -64 109 52 229 168 284 274 78 150 110 359 88 562 -11
101 -11 103 13 140 14 20 30 58 36 84 24 93 -36 207 -124 239 -24 9 -37 21
-41 38 -4 14 -25 72 -47 129 -22 57 -38 104 -37 106 2 1 58 26 124 55 317 139
567 314 718 501 223 277 239 587 45 873 -144 212 -458 437 -813 582 -38 16
-72 30 -74 32 -2 1 15 50 38 108 154 393 205 757 141 1010 -51 204 -180 370
-350 453 -100 49 -169 68 -303 84 -217 26 -552 -37 -871 -163 -55 -22 -103
-36 -107 -32 -4 5 -23 44 -42 88 -214 501 -508 827 -815 906 -97 25 -242 25
-333 0z m242 -221 c235 -44 478 -312 668 -737 69 -156 68 -145 20 -172 -38
-22 -45 -23 -95 -12 -63 14 -122 2 -172 -36 -34 -26 -72 -89 -72 -122 0 -13
-27 -36 -92 -77 -50 -32 -145 -96 -211 -142 -82 -57 -125 -82 -133 -76 -241
170 -501 334 -689 434 -55 29 -101 54 -103 55 -5 4 68 167 130 287 93 184 168
289 287 408 85 85 121 113 182 143 110 54 180 66 280 47z m-1788 -821 c57 -9
78 -17 102 -39 55 -52 134 -72 205 -51 18 6 52 -2 115 -25 143 -51 188 -73
182 -88 -56 -146 -207 -791 -207 -884 0 -25 5 -23 -165 -52 -202 -35 -644
-144 -746 -185 -13 -5 -24 14 -56 92 -55 132 -107 296 -134 423 -19 85 -23
136 -23 265 0 147 2 166 25 231 63 173 184 278 364 314 60 12 257 11 338 -1z
m3762 0 c177 -33 307 -145 367 -316 20 -61 23 -86 23 -233 0 -180 -16 -278
-77 -470 -33 -102 -105 -290 -116 -302 -4 -4 -50 6 -102 23 -149 46 -437 116
-633 153 -98 19 -181 37 -184 39 -3 3 -16 65 -29 139 -39 209 -90 429 -143
611 l-48 168 36 15 c210 90 404 148 591 177 55 9 260 6 315 -4z m-2836 -346
c127 -68 382 -225 490 -301 l94 -65 -39 -31 c-21 -17 -107 -88 -190 -158
l-151 -126 -139 -12 c-77 -6 -186 -17 -244 -24 -58 -7 -106 -12 -108 -11 -8 7
82 416 124 565 25 91 49 175 51 188 3 12 10 22 16 22 5 0 49 -21 96 -47z
m1709 -60 c55 -192 152 -609 152 -659 0 -7 -33 -7 -107 2 -60 7 -171 18 -247
24 l-140 12 -70 62 c-39 34 -118 99 -176 145 -58 46 -111 90 -118 96 -14 13
32 49 227 175 83 54 86 55 160 56 49 0 87 7 107 17 42 22 94 82 101 118 5 28
41 58 69 59 6 0 25 -48 42 -107z m-853 -508 c28 -22 65 -52 83 -67 l33 -28
-187 0 -187 0 94 74 c52 41 99 71 104 67 6 -4 33 -25 60 -46z m274 -342 l144
-6 133 -124 c113 -105 134 -129 134 -153 0 -87 71 -164 162 -176 47 -6 52 -11
152 -120 l103 -114 6 -127 c9 -165 9 -585 0 -731 l-6 -113 -85 -92 c-111 -120
-459 -465 -546 -542 l-69 -60 -472 0 -472 0 -79 70 c-98 86 -465 453 -556 555
l-66 75 -7 265 c-4 146 -4 363 0 482 l7 217 162 172 c88 95 243 250 343 345
l183 173 77 4 c154 6 611 7 752 0z m-1344 -165 c-75 -76 -131 -127 -133 -119
-4 12 17 213 22 218 1 2 54 9 117 17 63 7 116 14 119 15 2 0 -54 -59 -125
-131z m2020 112 c49 -6 91 -12 92 -14 5 -4 31 -231 27 -235 -5 -5 -11 16 -18
60 -4 20 -17 52 -29 70 -25 38 -97 79 -137 79 -16 0 -38 12 -55 30 l-29 30 29
-5 c17 -2 70 -9 120 -15z m-2379 -82 c-8 -48 -25 -205 -36 -341 l-10 -118
-128 -153 c-70 -84 -140 -170 -157 -190 l-30 -38 -64 93 c-58 83 -64 98 -62
137 1 24 -3 59 -9 77 -13 40 -71 94 -109 101 -18 4 -34 19 -50 47 -68 122
-123 228 -120 232 17 16 381 110 604 155 183 37 177 37 171 -2z m2932 -8 c158
-32 347 -79 545 -137 9 -3 17 -10 17 -15 0 -23 -93 -178 -129 -215 -22 -22
-43 -53 -46 -69 -3 -16 -17 -51 -32 -79 -26 -50 -175 -279 -197 -303 -9 -9
-30 11 -98 95 -47 60 -117 144 -156 189 l-69 81 -17 189 c-9 104 -20 215 -25
247 -4 32 -4 57 1 57 5 0 98 -18 206 -40z m-3898 -309 c22 -44 61 -117 88
-163 30 -49 52 -101 56 -128 8 -58 36 -103 76 -126 42 -25 236 -302 224 -320
-180 -260 -334 -505 -427 -681 -32 -62 -60 -113 -61 -113 -6 0 -185 79 -219
96 -23 12 -48 36 -60 59 -33 59 -78 85 -146 85 -52 0 -63 4 -121 46 -36 26
-106 89 -157 140 -255 259 -249 518 19 781 130 127 316 245 552 349 66 30 124
54 128 54 4 0 26 -36 48 -79z m4787 45 c611 -262 893 -597 773 -918 -81 -216
-345 -436 -724 -601 -154 -68 -140 -68 -177 5 -83 167 -236 417 -380 624 -78
110 -81 119 -68 140 8 13 61 93 119 178 105 155 105 156 143 156 123 0 201
129 153 253 l-16 42 41 78 c22 42 44 77 49 77 4 0 44 -15 87 -34z m-3882 -770
c0 -101 -3 -182 -7 -180 -4 3 -38 44 -75 91 -61 78 -65 87 -53 107 19 31 124
165 130 166 3 0 5 -83 5 -184z m2985 0 c0 -6 -32 -51 -70 -100 l-70 -89 0 188
0 188 70 -88 c39 -48 70 -93 70 -99z m-3093 -438 l123 -147 15 -173 c9 -95 20
-204 25 -243 5 -38 7 -71 5 -73 -6 -7 -318 61 -500 108 -254 67 -275 73 -275
83 0 27 201 365 333 561 l81 119 35 -44 c20 -24 91 -110 158 -191z m3346 95
c134 -202 317 -513 317 -539 0 -19 -430 -130 -673 -174 l-100 -18 6 67 c3 36
13 146 23 245 l16 179 127 151 c70 83 139 168 155 188 15 21 32 36 36 33 4 -2
46 -62 93 -132z m-2760 -728 l72 -67 -80 7 c-155 13 -159 15 -166 60 -4 22
-10 76 -14 120 l-7 80 62 -67 c33 -37 93 -97 133 -133z m2082 168 c-2 -16 -9
-68 -15 -118 -6 -49 -12 -91 -13 -92 -2 -2 -237 -30 -237 -28 0 4 256 262 262
263 4 1 5 -10 3 -25z m-3193 -259 c160 -47 449 -112 622 -141 60 -10 110 -22
111 -28 2 -5 15 -80 30 -165 29 -164 104 -478 154 -645 17 -55 27 -102 23
-106 -32 -28 -365 -141 -506 -171 -149 -32 -393 -32 -489 0 -96 32 -167 78
-167 107 0 57 -41 118 -97 141 -26 11 -34 23 -48 71 -26 87 -31 257 -11 391
19 130 67 301 127 452 22 58 45 115 50 128 7 19 14 22 32 16 12 -4 88 -26 169
-50z m4350 -71 l48 -121 -20 -43 c-25 -55 -25 -131 -1 -184 17 -38 74 -98 103
-107 10 -4 13 -43 13 -184 0 -162 -2 -186 -23 -247 -53 -152 -145 -243 -302
-298 -58 -21 -83 -23 -230 -23 -181 1 -267 15 -455 74 -107 34 -305 108 -317
119 -4 3 6 48 22 99 49 155 117 436 154 631 19 101 38 187 43 190 4 4 64 17
133 30 197 35 431 89 605 141 88 26 165 47 170 46 6 -2 31 -57 57 -123z
m-3222 -142 c52 -6 150 -15 218 -21 l123 -10 171 -143 171 -142 -34 -6 c-19
-3 -44 -10 -55 -17 -39 -21 -82 -79 -89 -121 -6 -39 -11 -43 -118 -109 -176
-108 -338 -195 -347 -185 -19 18 -105 348 -150 568 -45 228 -44 207 -12 201
15 -3 70 -10 122 -15z m2000 11 c0 -66 -164 -748 -185 -770 -11 -12 -322 169
-544 316 l-143 96 38 31 c21 16 107 88 191 158 l153 128 178 15 c97 9 202 19
232 24 78 11 80 11 80 2z m-890 -62 c-1 -6 -135 -111 -166 -130 -19 -12 -30
-7 -112 56 -50 38 -91 71 -92 74 0 3 83 5 185 5 102 0 185 -2 185 -5z m-67
-529 c187 -130 460 -297 619 -377 47 -24 68 -40 64 -49 -165 -432 -414 -759
-646 -849 -294 -115 -604 113 -855 629 -40 83 -80 169 -89 192 l-16 43 73 36
c95 48 261 144 367 212 67 43 95 56 132 58 27 2 61 10 76 18 37 19 92 81 92
103 0 16 46 62 63 63 4 0 58 -35 120 -79z"/>
<path d="M6470 7324 c-217 -40 -345 -106 -477 -248 -81 -87 -141 -193 -175
-312 -19 -65 -23 -102 -22 -209 1 -112 4 -143 28 -220 167 -550 849 -732 1267
-338 159 150 239 337 239 558 0 225 -79 407 -245 563 -93 88 -217 157 -335
186 -66 17 -234 29 -280 20z"/>
</g>
</svg>
